<?xml version="1.0" encoding="UTF-8" standalone="no"?>
<svg
   class="img-fluid"
   id="outputsvg"
   width="2407.0264"
   height="2407.0205"
   viewBox="0 0 24070.264 24070.204"
   version="1.1"
   sodipodi:docname="folio.svg"
   xml:space="preserve"
   inkscape:version="1.2.2 (732a01da63, 2022-12-09)"
   inkscape:export-filename="folio.png"
   inkscape:export-xdpi="90"
   inkscape:export-ydpi="90"
   xmlns:inkscape="http://www.inkscape.org/namespaces/inkscape"
   xmlns:sodipodi="http://sodipodi.sourceforge.net/DTD/sodipodi-0.dtd"
   xmlns:xlink="http://www.w3.org/1999/xlink"
   xmlns="http://www.w3.org/2000/svg"
   xmlns:svg="http://www.w3.org/2000/svg"><defs
     id="defs567"><linearGradient
       inkscape:collect="always"
       id="linearGradient1593"><stop
         style="stop-color:#a9009a;stop-opacity:1;"
         offset="0"
         id="stop1589" /><stop
         style="stop-color:#3fb4ef;stop-opacity:1;"
         offset="1"
         id="stop1591" /></linearGradient><rect
       x="248"
       y="2228"
       width="2852"
       height="1360"
       id="rect557" /><rect
       x="680"
       y="2140"
       width="2272"
       height="1124"
       id="rect5952" /><linearGradient
       inkscape:collect="always"
       xlink:href="#linearGradient1593"
       id="linearGradient1595"
       x1="2409.9939"
       y1="-110.00011"
       x2="2409.9939"
       y2="5200"
       gradientUnits="userSpaceOnUse" /><linearGradient
       inkscape:collect="always"
       xlink:href="#linearGradient1593"
       id="linearGradient1822"
       gradientUnits="userSpaceOnUse"
       x1="2409.9939"
       y1="-110.00011"
       x2="2409.9939"
       y2="5200" /><linearGradient
       inkscape:collect="always"
       xlink:href="#linearGradient1593"
       id="linearGradient1824"
       gradientUnits="userSpaceOnUse"
       x1="2409.9939"
       y1="-110.00011"
       x2="2409.9939"
       y2="5200" /></defs><sodipodi:namedview
     id="namedview565"
     pagecolor="#ffffff"
     bordercolor="#999999"
     borderopacity="1"
     inkscape:showpageshadow="0"
     inkscape:pageopacity="0"
     inkscape:pagecheckerboard="0"
     inkscape:deskcolor="#d1d1d1"
     showgrid="false"
     showguides="true"
     inkscape:zoom="0.25"
     inkscape:cx="1236"
     inkscape:cy="1816"
     inkscape:window-width="1928"
     inkscape:window-height="1464"
     inkscape:window-x="1206"
     inkscape:window-y="413"
     inkscape:window-maximized="0"
     inkscape:current-layer="outputsvg"><sodipodi:guide
       position="-5118.9942,19896.482"
       orientation="1,0"
       id="guide1398"
       inkscape:locked="false" /></sodipodi:namedview><g
     transform="matrix(4.7012118,0,0,-4.7012118,0.05783882,24070.204)"
     fill="#000000"
     stroke="none"
     id="g388"
     style="fill:url(#linearGradient1595);fill-opacity:1"><path
       d="m 952,5103 c -43,-21 -79,-64 -92,-111 -6,-24 -10,-309 -10,-809 V 3410 H 456 C 239,3410 54,3407 45,3404 -2,3386 0,3450 0,1700 V 58 L 29,29 58,0 h 2064 2064 l 44,23 c 24,12 52,34 63,48 26,36 827,2282 827,2319 0,64 -51,136 -113,159 -17,7 -132,11 -297,11 h -269 l -3,368 -3,369 -25,36 c -43,62 -82,77 -203,77 h -106 l -3,363 c -3,409 -4,414 -81,465 -39,26 -48,27 -194,31 l -153,3 v 142 c 0,130 -2,147 -23,187 -39,73 -67,83 -247,89 l -155,5 -5,155 c -6,180 -18,213 -94,249 -42,21 -50,21 -1102,21 -954,0 -1062,-2 -1092,-17 z m 2118,-283 v -130 h -832 -833 l -40,-23 c -26,-14 -48,-37 -62,-67 l -23,-44 v -998 -998 h -130 -130 v 1195 1195 h 1025 1025 z m 430,-425 v -125 h -812 c -529,0 -826,-4 -850,-10 -21,-6 -51,-22 -68,-37 -63,-53 -60,-6 -60,-873 v -790 h -130 -130 v 980 980 h 1025 1025 z m 428,-1067 2,-768 h -271 -271 l 65,69 c 189,201 258,472 186,731 -59,215 -202,386 -404,484 -119,58 -204,78 -337,78 -424,-1 -764,-343 -760,-766 2,-217 71,-382 226,-543 l 50,-53 h -267 -267 v 770 770 l 1023,-2 1022,-3 z m -878,407 c 328,-87 522,-437 419,-756 -23,-73 -85,-183 -122,-217 l -25,-24 -7,34 c -14,64 -50,124 -108,180 l -59,58 25,30 c 74,87 88,244 32,355 -37,72 -109,138 -183,165 -78,30 -195,25 -267,-10 -144,-70 -224,-244 -181,-392 9,-31 31,-79 50,-106 l 34,-50 -35,-25 c -52,-37 -111,-122 -129,-185 l -17,-56 -33,39 c -86,102 -136,245 -135,385 1,171 53,294 175,415 86,85 162,131 267,159 71,19 229,20 299,1 z m -73,-341 c 73,-35 110,-127 84,-207 -7,-20 -30,-51 -51,-71 -136,-123 -344,42 -258,204 43,80 142,113 225,74 z M 848,2893 845,2545 667,2516 c -97,-16 -180,-26 -183,-23 -5,5 -274,736 -274,744 0,2 144,3 320,3 h 320 z m 3422,7 v -340 h -85 -85 v 340 340 h 85 85 z m -1231,-35 c 29,-16 64,-43 76,-60 28,-36 48,-108 43,-156 -3,-32 -6,-35 -73,-58 -100,-35 -260,-36 -362,-2 l -73,24 v 59 c 0,68 21,117 72,165 53,51 92,64 183,60 66,-3 90,-8 134,-32 z M 250,2625 c 78,-217 96,-254 137,-280 49,-32 86,-34 235,-9 79,13 152,24 164,24 19,0 -7,-79 -292,-877 C 321,1000 178,601 176,595 c -2,-5 -5,496 -5,1114 -1,618 1,1122 3,1120 2,-2 36,-94 76,-204 z m 4666,-327 c -18,-51 -197,-551 -396,-1111 L 4157,170 H 2183 209 l 7,23 c 5,17 759,2130 779,2185 3,9 409,12 1980,12 h 1975 z"
       id="path384"
       style="fill:url(#linearGradient1822);fill-opacity:1" /><path
       d="m 1850,2198 c -52,-17 -77,-34 -126,-82 -49,-50 -64,-73 -82,-129 -26,-80 -27,-113 -7,-192 27,-104 98,-187 192,-226 l 51,-22 4,-131 c 4,-144 12,-169 72,-229 18,-18 50,-42 72,-53 37,-18 69,-19 688,-22 714,-3 703,-4 778,58 20,17 48,53 62,82 24,47 26,63 26,173 v 121 l 55,23 c 71,29 139,96 173,169 35,76 37,201 4,274 -64,143 -228,228 -379,198 -103,-21 -189,-87 -241,-185 -23,-44 -26,-62 -27,-145 0,-81 4,-102 25,-145 32,-66 103,-136 168,-165 l 52,-24 v -102 c 0,-56 -3,-110 -6,-119 -17,-44 -28,-45 -674,-45 -446,0 -617,3 -633,12 -41,21 -46,39 -47,148 v 105 l 60,29 c 76,36 142,107 170,184 29,76 24,194 -11,267 -73,154 -255,229 -419,173 z m 191,-171 c 96,-51 120,-186 47,-264 -29,-31 -38,-29 -38,7 0,65 -58,120 -108,103 -43,-15 -62,-45 -62,-97 v -50 l -34,33 c -86,84 -61,222 48,272 55,25 94,24 147,-4 z m 1544,-6 c 63,-36 95,-116 76,-188 -10,-38 -53,-93 -72,-93 -5,0 -9,19 -9,43 0,67 -51,106 -111,85 -33,-11 -59,-56 -59,-103 0,-23 -2,-25 -21,-15 -26,14 -58,85 -59,128 0,48 23,96 64,128 58,47 127,52 191,15 z"
       id="path386"
       style="fill:url(#linearGradient1824);fill-opacity:1" /></g></svg>
